Cover: 
http://imgr.us/images/q9f1g1skt05y5ndpfckp.jpg

Info:

Format : Matroska
Format version : Version 2
File size : 2.96 GiB
Duration : 1h 32mn
Overall bit rate : 4 570 Kbps
Encoded date : UTC 2012-12-18 23:24:22
Writing application : mkvmerge v5.8.0 ('No Sleep / Pillow') built on Sep 2 2012 15:37:04
Writing library : libebml v1.2.3 + libmatroska v1.3.0

Video
ID : 1
Format : AVC
Format/Info : Advanced Video Codec
Format profile : Baseline@L3.0
Format settings, CABAC : No
Format settings, ReFrames : 3 frames
Muxing mode : Header stripping
Codec ID : V_MPEG4/ISO/AVC
Duration : 1h 32mn
Bit rate : 4 288 Kbps
Width : 1 280 pixels
Height : 534 pixels
Display aspect ratio : 2.40:1
Frame rate mode : Constant
Frame rate : 23.976 fps
Color space : YUV
Chroma subsampling : 4:2:0
Bit depth : 8 bits
Scan type : Progressive
Bits/(Pixel*Frame) : 0.262
Stream size : 2.77 GiB (94%)
Writing library : x264 core 102
Default : Yes
Forced : No

Audio
ID : 2
Format : AC-3
Format/Info : Audio Coding 3
Mode extension : CM (complete main)
Format settings, Endianness : Big
Muxing mode : Header stripping
Duration : 1h 32mn
Bit rate mode : Constant
Bit rate : 192 Kbps
Channel(s) : 2 channels
Channel positions : Front: L R
Sampling rate : 48.0 KHz
Bit depth : 16 bits
Compression mode : Lossy
Stream size : 127 MiB (4%)
Default : Yes
Forced : No

Screens: 
http://imgr.us/images/yafswx9aluovtoawl7u.jpg 
http://imgr.us/images/8scwh51i2qa8eyjski7z.png 
http://imgr.us/images/pf5pnnwy7jnbh8m36xvf.png 
http://imgr.us/images/1wiv2dnomx6knl6u80nn.png 
http://imgr.us/images/v6ohcpuszupez6rsoewf.png 
http://imgr.us/images/lcg7i4gp9kfkskoza0ji.jpg
